<?xml version="1.0" encoding="utf-8"?>
<!-- Generator: Adobe Illustrator 24.1.2, SVG Export Plug-In . SVG Version: 6.00 Build 0)  -->
<svg version="1.1" id="Capa_1" xmlns="http://www.w3.org/2000/svg" xmlns:xlink="http://www.w3.org/1999/xlink" x="0px" y="0px"
	 viewBox="0 0 987.5 958.7" style="enable-background:new 0 0 987.5 958.7;" xml:space="preserve">
<g id="Layer_2">
</g>
<g id="Tuerca_grande">
	<g>
		<path d="M346.8,612h-81.6c-12.6,0-22.9-10.3-22.9-22.9v-54c-18.6-5.2-36.4-12.6-53.2-22.1l-38.2,38.2c-8.7,8.7-23.7,8.7-32.4,0
			l-57.6-57.7c-4.3-4.3-6.7-10.1-6.7-16.2c0-6.1,2.4-11.9,6.7-16.2l38.9-38.9c-9.1-16.6-16.2-34.2-21.1-52.5H22.9
			C10.3,369.7,0,359.4,0,346.8v-81.6c0-12.6,10.3-22.9,22.9-22.9h57.6c5.2-17.5,12.5-34.3,21.6-50.2l-41.3-41.3
			c-4.3-4.3-6.7-10-6.7-16.1c0-6.1,2.4-11.9,6.7-16.2l57.6-57.7c8.7-8.6,23.7-8.6,32.4,0l42.6,42.6c15.5-8.4,31.9-15.1,48.9-19.8
			V22.9c0-12.6,10.3-22.9,22.9-22.9h81.6c12.6,0,22.9,10.3,22.9,22.9V84c16.8,4.8,33,11.5,48.3,19.9l43.2-43.1
			c8.6-8.6,23.7-8.6,32.3,0l57.7,57.7c8.9,9,8.9,23.5,0,32.3l-42.4,42.4c8.9,15.5,15.9,32,21,49.1h59.2c12.6,0,23,10.3,23,22.9v81.6
			c0,12.6-10.3,22.9-23,22.9h-57.4c-4.8,17.9-11.6,35.2-20.5,51.4l40,40c8.9,8.9,8.9,23.4,0,32.4l-57.7,57.7
			c-8.6,8.6-23.8,8.7-32.4,0l-38.8-38.8c-16.6,9.6-34.3,17.1-52.6,22.4v54.4C369.7,601.7,359.4,612,346.8,612z M186.1,488.9l6.4,3.9
			c19.1,11.7,39.8,20.3,61.5,25.6l7.3,1.8v68.9c0,2.1,1.7,3.8,3.8,3.8h81.6c2.1,0,3.8-1.7,3.8-3.8v-69.2l7.2-1.8
			c21.5-5.4,42-14.1,60.9-25.9l6.5-4l49.5,49.5c1,1,2.1,1.1,2.7,1.1c0.6,0,1.7-0.1,2.6-1.1l57.7-57.7c1.5-1.5,1.5-3.9,0-5.4
			l-50.4-50.4l3.7-6.4c10.9-18.6,18.9-38.8,23.8-59.9l1.7-7.4h72.5c2.1,0,3.8-1.7,3.8-3.8v-81.6c0-2.1-1.7-3.8-3.8-3.8h-73.9
			l-1.9-7.1c-5.4-20.3-13.7-39.7-24.7-57.6l-4-6.4l53-53c1.5-1.5,1.5-3.8,0-5.3L480,74.3c-0.9-0.9-2.1-1.1-2.7-1.1
			c-0.6,0-1.7,0.1-2.7,1.1l-53.6,53.5l-6.4-3.8c-17.8-10.5-37-18.4-57-23.5l-7.2-1.8V22.9c0-2.1-1.6-3.7-3.8-3.7h-81.6
			c-2.1,0-3.8,1.7-3.8,3.7v75.6l-7.3,1.8c-20.2,4.9-39.5,12.7-57.5,23.2l-6.4,3.7l-52.9-52.9c-0.9-0.9-2.1-1.1-2.7-1.1
			c-0.6,0-1.7,0.1-2.7,1.1L74.3,132c-1,1-1.1,2.1-1.1,2.7c0,0.6,0.1,1.7,1.1,2.6l52,52l-4,6.5c-11.3,18.2-19.9,37.9-25.3,58.6
			l-1.9,7.1H22.9c-2.1,0-3.7,1.7-3.7,3.8v81.6c0,2.1,1.7,3.8,3.7,3.8h70.9l1.7,7.4c4.9,21.5,13.2,42,24.4,61l3.8,6.4l-49.3,49.3
			c-1,1-1.1,2.1-1.1,2.7c0,0.6,0.1,1.7,1.1,2.7l57.7,57.7c1,1,2.1,1.1,2.7,1.1c0.6,0,1.7-0.1,2.7-1.1L186.1,488.9z M306,446.2
			c-77.3,0-140.2-62.9-140.2-140.2c0-77.3,62.9-140.2,140.2-140.2S446.2,228.7,446.2,306C446.2,383.3,383.3,446.2,306,446.2z
			 M306,184.9c-66.8,0-121.1,54.3-121.1,121.1c0,66.8,54.3,121.1,121.1,121.1c66.8,0,121.1-54.3,121.1-121.1
			C427.1,239.2,372.8,184.9,306,184.9z"/>
	</g>
</g>
<g id="Tuerca_mediana">
	<g>
		<path d="M718.2,708.4L662.3,688c-8.6-3.2-13.1-12.8-10-21.4l13.5-37c-11.5-8.2-21.8-17.7-30.9-28.5l-35.7,16.6
			c-8.1,3.8-18.4,0-22.2-8.1l-25.1-53.9c-1.9-4-2.1-8.6-0.6-12.8c1.5-4.2,4.6-7.5,8.6-9.4l36.4-17c-2.1-13.6-2.6-27.5-1.3-41.2
			l-38.2-13.9c-8.6-3.1-13.1-12.7-9.9-21.4l20.4-55.9c3.2-8.7,12.7-13.1,21.4-10l39.5,14.4c7.9-10.7,17.1-20.4,27.3-29l-18-38.6
			c-1.9-4-2.1-8.5-0.6-12.7c1.5-4.2,4.6-7.6,8.7-9.4l53.9-25.1c8.1-3.7,18.4,0,22.2,8.1l18.5,39.8c12.7-1.9,25.6-2.4,38.4-1.3
			l15.1-41.6c3.1-8.6,12.7-13.1,21.4-9.9l55.9,20.4c8.7,3.2,13.1,12.7,10,21.4l-15.3,41.9c10.3,7.5,19.7,16.1,28.1,25.7l40.3-18.8
			c8-3.8,18.4,0,22.2,8.1l25.1,54c3.9,8.4,0.2,18.3-8.1,22.2L933.7,462c2.2,12.8,2.9,25.9,2.1,38.9l40.6,14.8
			c8.7,3.2,13.2,12.8,10,21.4L966.1,593c-3.2,8.6-12.8,13.1-21.4,10l-39.3-14.3c-7.7,11.1-16.7,21.2-26.9,30.1l17.4,37.4
			c3.9,8.3,0.2,18.3-8.1,22.2l-53.9,25.1c-8,3.8-18.4,0-22.2-8.1L794.8,659c-13.8,2.4-27.7,3.2-41.6,2.2l-13.6,37.3
			C736.4,707.1,726.8,711.6,718.2,708.4z M638.9,584l3.4,4.3c10.1,12.8,22.2,23.8,35.8,32.9l4.6,3l-17.2,47.2
			c-0.5,1.4,0.2,3,1.6,3.5l55.9,20.4c1.5,0.5,3-0.2,3.5-1.6l17.3-47.4l5.4,0.6c16.1,1.7,32.3,0.8,48.2-2.5l5.4-1.1l21.6,46.3
			c0.4,0.9,1.1,1.3,1.5,1.4c0.4,0.1,1.2,0.3,2.1-0.1l54-25.1c1.4-0.6,2-2.3,1.3-3.7l-21.9-47.1l4.2-3.4c12.1-10,22.7-21.8,31.3-35.1
			l3-4.6l49.7,18.1c1.4,0.5,3-0.2,3.6-1.6l20.4-55.9c0.5-1.4-0.2-3-1.7-3.5l-50.6-18.4l0.5-5.3c1.4-15.2,0.5-30.6-2.5-45.6l-1.1-5.4
			l49.5-23.1c1.4-0.6,2-2.3,1.3-3.6l-25.1-53.9c-0.4-0.9-1.1-1.3-1.5-1.4c-0.4-0.1-1.2-0.3-2.1,0.1L890,395.3l-3.4-4.2
			c-9.6-11.7-20.7-21.9-33.2-30.3l-4.5-3l19-52c0.5-1.4-0.2-3-1.6-3.5l-55.9-20.4c-1.4-0.5-3,0.2-3.5,1.6l-18.9,51.8l-5.4-0.6
			c-15.1-1.7-30.3-1.2-45.2,1.6l-5.3,1l-23-49.5c-0.4-0.9-1.2-1.3-1.6-1.4c-0.4-0.1-1.2-0.3-2.1,0.1l-53.9,25.1
			c-0.9,0.4-1.3,1.2-1.4,1.5c-0.1,0.4-0.3,1.2,0.1,2l22.6,48.6l-4.4,3.4c-12.3,9.7-23.1,21-32,33.8l-3.1,4.4l-49.5-18
			c-1.4-0.5-3,0.2-3.5,1.7l-20.4,55.9c-0.5,1.4,0.2,3,1.6,3.5l48.6,17.7l-0.7,5.5c-2,16-1.5,32.1,1.5,47.8l1,5.3l-46.1,21.5
			c-0.9,0.4-1.3,1.1-1.4,1.5c-0.1,0.4-0.3,1.2,0.1,2.1l25.1,53.9c0.4,0.9,1.2,1.3,1.6,1.4c0.4,0.1,1.2,0.3,2.1-0.1L638.9,584z
			 M731.6,584.7c-53-19.3-80.4-78.1-61.1-131.1c19.3-53,78.1-80.4,131.1-61.1c53,19.3,80.4,78.1,61.1,131.1
			C843.4,576.6,784.6,604,731.6,584.7z M796.9,405.7c-45.8-16.7-96.5,7-113.2,52.7c-16.7,45.7,7,96.5,52.7,113.2
			c45.7,16.7,96.5-7,113.2-52.7C866.3,473.1,842.6,422.3,796.9,405.7z"/>
	</g>
</g>
<g id="Tuerca_peque">
	<g>
		<path d="M794.7,958.7h-36.6c-5.7,0-10.3-4.6-10.3-10.3v-24.2c-8.3-2.3-16.3-5.6-23.9-9.9l-17.1,17.1c-3.9,3.9-10.7,3.9-14.5,0
			l-25.9-25.9c-1.9-1.9-3-4.5-3-7.3c0-2.7,1.1-5.3,3-7.3l17.5-17.5c-4.1-7.4-7.3-15.3-9.4-23.6h-25c-5.7,0-10.3-4.6-10.3-10.3v-36.6
			c0-5.7,4.6-10.3,10.3-10.3h25.9c2.3-7.8,5.6-15.4,9.7-22.5l-18.5-18.5c-1.9-1.9-3-4.5-3-7.2c0-2.8,1.1-5.3,3-7.3l25.9-25.9
			c3.9-3.9,10.6-3.9,14.5,0l19.1,19.1c7-3.8,14.3-6.8,21.9-8.9v-27.2c0-5.7,4.6-10.3,10.3-10.3h36.6c5.7,0,10.3,4.6,10.3,10.3v27.4
			c7.5,2.2,14.8,5.2,21.7,8.9l19.4-19.4c3.9-3.9,10.6-3.9,14.5,0l25.9,25.9c4,4,4,10.5,0,14.5l-19,19c4,7,7.1,14.3,9.4,22h26.6
			c5.7,0,10.3,4.6,10.3,10.3v36.6c0,5.7-4.6,10.3-10.3,10.3h-25.8c-2.1,8-5.2,15.8-9.2,23.1l18,18c4,4,4,10.5,0,14.5l-25.9,25.9
			c-3.8,3.9-10.7,3.9-14.5,0L828.5,914c-7.5,4.3-15.4,7.7-23.6,10v24.4C804.9,954.1,800.3,958.7,794.7,958.7z M722.6,903.5l2.9,1.8
			c8.6,5.3,17.8,9.1,27.6,11.5l3.3,0.8v30.9c0,0.9,0.8,1.7,1.7,1.7h36.6c0.9,0,1.7-0.7,1.7-1.7v-31l3.2-0.8
			c9.6-2.4,18.8-6.3,27.3-11.6l2.9-1.8l22.2,22.2c0.4,0.4,0.9,0.5,1.2,0.5c0.3,0,0.8-0.1,1.2-0.5l25.9-25.9c0.7-0.7,0.7-1.7,0-2.4
			l-22.6-22.6l1.7-2.9c4.9-8.4,8.5-17.4,10.7-26.9l0.8-3.3h32.5c0.9,0,1.7-0.8,1.7-1.7v-36.6c0-0.9-0.8-1.7-1.7-1.7h-33.1l-0.8-3.2
			c-2.4-9.1-6.1-17.8-11.1-25.8l-1.8-2.9l23.8-23.8c0.7-0.7,0.7-1.7,0-2.4l-25.9-25.9c-0.4-0.4-0.9-0.5-1.2-0.5
			c-0.3,0-0.8,0.1-1.2,0.5l-24,24l-2.9-1.7c-8-4.7-16.6-8.3-25.5-10.5l-3.2-0.8v-34c0-0.9-0.7-1.7-1.7-1.7h-36.6
			c-0.9,0-1.7,0.8-1.7,1.7v33.9l-3.3,0.8c-9.1,2.2-17.7,5.7-25.8,10.4l-2.9,1.7l-23.7-23.7c-0.4-0.4-0.9-0.5-1.2-0.5
			c-0.3,0-0.8,0.1-1.2,0.5l-25.8,25.9c-0.4,0.4-0.5,0.9-0.5,1.2c0,0.3,0.1,0.7,0.5,1.2l23.3,23.3L694,772c-5.1,8.2-8.9,17-11.4,26.3
			l-0.8,3.2h-32.4c-0.9,0-1.7,0.8-1.7,1.7v36.6c0,0.9,0.8,1.7,1.7,1.7h31.8l0.8,3.3c2.2,9.6,5.9,18.8,10.9,27.3l1.7,2.9l-22.1,22.1
			c-0.4,0.4-0.5,0.9-0.5,1.2c0,0.3,0.1,0.8,0.5,1.2l25.9,25.9c0.4,0.4,0.9,0.5,1.2,0.5c0.3,0,0.8-0.1,1.2-0.5L722.6,903.5z
			 M776.4,884.4c-34.7,0-62.9-28.2-62.9-62.9c0-34.7,28.2-62.9,62.9-62.9c34.7,0,62.9,28.2,62.9,62.9
			C839.3,856.1,811.1,884.4,776.4,884.4z M776.4,767.1c-30,0-54.3,24.4-54.3,54.3c0,30,24.4,54.3,54.3,54.3
			c30,0,54.3-24.4,54.3-54.3C830.7,791.5,806.3,767.1,776.4,767.1z"/>
	</g>
</g>
</svg>
